<svg width="430" height="816" viewBox="0 0 430 816" fill="none" xmlns="http://www.w3.org/2000/svg">
<ellipse cx="5.56454" cy="298.112" rx="217.787" ry="206.328" transform="rotate(-140.395 5.56454 298.112)" fill="url(#paint0_linear_32_1355)"/>
<path d="M-369.778 413.795L-542 841.483L-219.082 788.381L17.7267 841.483L260.272 788.381L584.63 850.255L410.968 413.795L217.219 365L21.3148 402.314L-178.896 365L-369.778 413.795Z" fill="white"/>
<path d="M-359.731 425.671L-511.861 820.35L-220.516 772.988L21.316 828.961L260.274 771.555L557.36 828.961L400.923 425.671L220.09 381.181L21.316 418.495L-181.765 381.181L-359.731 425.671Z" fill="white"/>
<path d="M-91.2048 695.312L-75.7984 752.74L-31.0911 772.178L32.5385 743.904L165.997 705.03L124.35 642.302L-91.2048 695.312Z" fill="#ECECEC"/>
<path d="M-368.417 447.858L-255.103 538.833L-104.668 567.35L55.7893 527.461L-17.4569 411.024L-181.767 380.833L-359.731 425.324L-368.417 447.858Z" fill="#ECECEC"/>
<path d="M4.45587 415.134L239.702 776.234L260.274 771.29L32.5921 416.115L21.3164 418.232L4.45587 415.134Z" fill="#ECECEC"/>
<path d="M-186.125 613.496L-156.315 700.183L108.295 632.58L59.3268 549.213L-186.125 613.496Z" fill="#E1E1E1"/>
<path d="M-38.9154 815.021L-36.3401 811.192L-18.9587 785.356L22.7464 772.098L51.4276 750.487L175.798 716.503L214.421 782.571L21.3141 828.961" fill="#E1E1E1"/>
<path d="M181.38 388.508L243.713 457.838L400.924 425.733L220.09 381.24L181.38 388.508Z" fill="#E1E1E1"/>
<path d="M434.012 510.933L318.545 543.014L260.273 465.842L404.868 435.799L434.012 510.933Z" fill="#E1E1E1"/>
<path d="M44.9376 413.739L165.995 587.63L305.716 547.538L165.995 391.014L44.9376 413.739Z" fill="#ECECEC"/>
<path d="M383.398 795.346L523.095 740.624L557.363 828.961L383.398 795.346Z" fill="#E1E1E1"/>
<path d="M237.296 577.569L313.2 557.783L393.379 653.988L315.336 679.904L237.296 577.569Z" fill="#C1C2D2"/>
<path d="M330.305 549.61L414.757 646.442L478.384 625.096L436.553 517.251L330.305 549.61Z" fill="#E1E1E1"/>
<path d="M393.379 772.178L330.307 684.683L482.758 636.083L513.737 715.949L493.87 735.956L393.379 772.178Z" fill="#7BC9EB"/>
<path d="M173.418 600.216L289.313 775.973L360.673 790.429L374.134 784.266L227.289 583.982L173.418 600.216Z" fill="#E1E1E1"/>
<path d="M110.283 402.043L195.767 526.79L269.399 506.896L165.996 391.054L110.283 402.043Z" fill="#E1E1E1"/>
<path d="M361.231 530.846L330.307 482.493L413.932 458.856L434.014 510.624L361.231 530.846Z" fill="#ECECEC"/>
<path d="M237.296 696.965L277.774 682.976L356.284 789.416L289.31 775.847L237.296 696.965Z" fill="#ECECEC"/>
<g clip-path="url(#clip0_32_1355)">
<path d="M345.643 106.915C246.533 118.873 175.788 210.465 187.928 311.081C204.172 445.704 389.305 585.702 397.18 591.602C399.331 593.2 401.9 593.825 404.357 593.528C406.814 593.232 409.16 592.014 410.87 589.95C417.115 582.346 563.636 402.332 547.393 267.709C535.253 167.093 444.753 94.9564 345.643 106.915ZM379.893 390.773C324.838 397.416 274.554 357.34 267.809 301.443C261.065 245.546 300.374 194.659 355.429 188.017C410.483 181.374 460.768 221.451 467.512 277.347C474.257 333.243 434.948 384.13 379.893 390.773Z" fill="#23A4DE"/>
<path d="M187.928 311.081C204.172 445.703 389.305 585.702 397.18 591.602C399.331 593.2 401.9 593.825 404.357 593.528C406.814 593.232 409.16 592.014 410.87 589.95C414.361 585.7 461.677 527.585 499.899 453.639C643.239 176.332 258.325 54.9167 187.928 311.081ZM379.893 390.773C324.838 397.416 274.554 357.339 267.809 301.442C261.065 245.546 300.374 194.659 355.429 188.016C410.483 181.374 460.768 221.451 467.512 277.347C474.257 333.243 434.948 384.13 379.893 390.773Z" fill="#0061A8"/>
<path d="M187.928 311.08C204.172 445.702 389.305 585.701 397.18 591.601C399.331 593.199 401.899 593.824 404.357 593.527C406.814 593.231 409.16 592.013 410.87 589.949C414.361 585.699 461.677 527.583 499.899 453.638C422.673 449.793 232.197 456.316 187.928 311.08Z" fill="#262F69"/>
</g>
<path d="M-32 815.679V723.987L430 612.289L429.445 815.679H-32Z" fill="#262F69"/>
<path d="M250.087 655.634L308.947 815.665H429.65L430 612.289L250.087 655.634Z" fill="#0061A8"/>
<path d="M308.947 815.679H121.815L-17.5625 720.097L250.642 655.634L308.947 815.679Z" fill="#7BC9EB"/>
<path d="M0 632.9C0 631.795 0.89543 630.9 2 630.9H29.628C30.7326 630.9 31.628 631.795 31.628 632.9V709.671L0 717.2V632.9Z" fill="#262F69"/>
<path d="M30.6318 584.92C30.6259 583.812 31.523 582.91 32.6318 582.91H60.2491C61.3537 582.91 62.2491 583.805 62.2491 584.91V702.534L31.2967 709.758L30.6318 584.92Z" fill="#0061A8"/>
<path d="M62.2417 619.189C62.2417 618.084 63.1371 617.189 64.2417 617.189H91.8697C92.9743 617.189 93.8697 618.084 93.8697 619.189L93.8697 695.213L62.2417 702.867L62.2417 619.189Z" fill="#23A4DE"/>
<path d="M88.5127 571.926C84.3017 561.222 72.6966 556.16 62.592 560.621C55.683 563.671 50.9853 570.585 50.4469 578.493C44.6081 579.349 40.5293 585.057 41.3368 591.242C42.0675 596.839 46.5863 601.006 51.9198 601H88.5126C96.0911 601 102.235 594.492 102.235 586.463C102.235 578.435 96.0914 571.926 88.5127 571.926Z" fill="#FFB300"/>
<defs>
<linearGradient id="paint0_linear_32_1355" x1="5.56453" y1="91.7837" x2="5.56453" y2="504.439" gradientUnits="userSpaceOnUse">
<stop stop-color="#FFB300"/>
<stop offset="1" stop-color="#996B00" stop-opacity="0"/>
</linearGradient>
<clipPath id="clip0_32_1355">
<rect width="482.762" height="490.143" fill="white" transform="translate(106 135.83) rotate(-6.87992)"/>
</clipPath>
</defs>
</svg>
