<svg width="14" height="14" viewBox="0 0 14 14" fill="none" xmlns="http://www.w3.org/2000/svg">
<g clip-path="url(#clip0_43_3634)">
<path d="M1.68557 3.06374L1.68557 3.0637C1.79968 2.33368 2.4285 1.79547 3.16757 1.79547L8.51361 1.79547C8.73691 1.79547 8.95742 1.84533 9.15905 1.94141L9.35823 2.03639L9.35848 2.03651C9.53244 2.11941 9.64329 2.29502 9.64329 2.48777V7.93022C9.64329 8.01575 9.62135 8.09985 9.57956 8.17448L9.57955 8.17449L7.50221 11.8846L7.50221 11.8846C7.39165 12.082 7.18299 12.2043 6.95666 12.2043C6.61134 12.2043 6.33141 11.9244 6.33141 11.5791L6.33141 9.22148V8.22148H5.33141L2.04767 8.22148C1.43386 8.22148 0.964869 7.67353 1.05967 7.06699L1.68557 3.06374ZM12.4601 2.37467H12.4602H12.4601Z" stroke="#F8F7FC" stroke-width="2"/>
</g>
<defs>
<clipPath id="clip0_43_3634">
<rect width="14" height="14" fill="white" transform="matrix(-1 0 0 -1 14 14)"/>
</clipPath>
</defs>
</svg>
