<svg width="14" height="14" viewBox="0 0 14 14" fill="none" xmlns="http://www.w3.org/2000/svg">
<g clip-path="url(#clip0_32_1511)">
<path d="M12.3144 10.9363L12.3144 10.9363C12.2003 11.6663 11.5715 12.2045 10.8324 12.2045H5.48639C5.26309 12.2045 5.04258 12.1547 4.84095 12.0586L4.64177 11.9636L4.64152 11.9635C4.46756 11.8806 4.35671 11.705 4.35671 11.5122V6.06978C4.35671 5.98425 4.37865 5.90015 4.42044 5.82552L4.42045 5.82551L6.49779 2.11544L6.49779 2.11543C6.60835 1.91796 6.81701 1.79565 7.04334 1.79565C7.38866 1.79565 7.66859 2.07559 7.66859 2.4209V4.77852V5.77852H8.66859H11.9523C12.5661 5.77852 13.0351 6.32647 12.9403 6.93301L12.3144 10.9363ZM1.53987 11.6253H1.53983H1.53987Z" fill="#F8F7FC" stroke="#F8F7FC" stroke-width="2"/>
</g>
<defs>
<clipPath id="clip0_32_1511">
<rect width="14" height="14" fill="white"/>
</clipPath>
</defs>
</svg>
