<svg width="49" height="49" viewBox="0 0 49 49" fill="none" xmlns="http://www.w3.org/2000/svg">
<g clip-path="url(#clip0_43_3597)">
<path d="M24.6188 0.150131C14.693 0.150131 6.61877 8.34874 6.61877 18.4253C6.61877 31.9076 23.2262 47.9321 23.9333 48.6083C24.1266 48.7917 24.3727 48.8839 24.6188 48.8839C24.8649 48.8839 25.111 48.7917 25.3044 48.6083C26.0113 47.9321 42.6188 31.9076 42.6188 18.4253C42.6188 8.34874 34.5446 0.150131 24.6188 0.150131ZM24.6188 28.5782C19.1051 28.5782 14.6187 24.0233 14.6187 18.4253C14.6187 12.8273 19.1051 8.2724 24.6188 8.2724C30.1324 8.2724 34.6188 12.8274 34.6188 18.4253C34.6188 24.0232 30.1325 28.5782 24.6188 28.5782Z" fill="#23A4DE"/>
<path d="M6.61877 18.4253C6.61877 31.9076 23.2262 47.9321 23.9333 48.6083C24.1266 48.7917 24.3727 48.8839 24.6188 48.8839C24.8649 48.8839 25.111 48.7917 25.3044 48.6083C25.6995 48.2303 31.0623 43.0572 35.7161 36.2131C53.1682 10.5469 16.6188 -6.02269 6.61877 18.4253ZM24.6188 28.5782C19.1051 28.5782 14.6187 24.0233 14.6187 18.4253C14.6187 12.8273 19.1051 8.27237 24.6188 8.27237C30.1324 8.27237 34.6188 12.8274 34.6188 18.4253C34.6188 24.0232 30.1325 28.5782 24.6188 28.5782Z" fill="#0061A8"/>
<path d="M6.61877 18.4252C6.61877 31.9075 23.2262 47.932 23.9333 48.6082C24.1266 48.7916 24.3727 48.8838 24.6188 48.8838C24.8649 48.8838 25.111 48.7916 25.3044 48.6082C25.6995 48.2302 31.0624 43.0571 35.7161 36.213C28.1388 34.9137 9.25877 33.289 6.61877 18.4252Z" fill="#262F69"/>
</g>
<defs>
<clipPath id="clip0_43_3597">
<rect width="48" height="48.7338" fill="white" transform="translate(0.618774 0.150131)"/>
</clipPath>
</defs>
</svg>
